<svg width="182" height="40" viewBox="0 0 182 40" fill="none" xmlns="http://www.w3.org/2000/svg">
<g clip-path="url(#clip0_1_56)">
<rect width="182.001" height="40.0014" rx="8" fill="url(#paint0_linear_1_56)"/>
<g filter="url(#filter0_d_1_56)">
<path d="M34.6 27.4119L22 34.5492L9.4 27.4119V13.1373L22 6L34.6 13.1373V27.4119Z" fill="#00FFFF" stroke="#00FFFF" stroke-width="0.961143"/>
<path d="M12.2716 25.632C12.2642 23.9617 12.2567 22.7341 12.2493 21.0639C11.449 20.6569 10.6455 20.256 9.85059 19.8383C9.79063 19.808 9.90627 19.753 9.92527 19.7133C10.8279 18.7864 11.6448 17.8707 12.6 16.9992C12.6103 16.9898 13.1159 16.7177 13.2886 16.611C13.3219 16.5483 13.2885 16.4264 13.2748 16.3621C13.1706 16.0245 12.9864 15.719 12.7962 15.4244C12.588 15.106 12.3354 14.8164 12.1578 14.4783C12.0406 14.2562 12.03 13.9944 12.0582 13.7494C12.1021 13.4322 12.3015 13.159 12.5473 12.9654C12.92 12.6698 13.3658 12.4881 13.8089 12.3284C14.5285 12.0725 15.2795 11.9186 16.0348 11.8173C16.429 11.7584 16.8272 11.7284 17.2202 11.6611C17.3879 11.6355 17.5455 11.5648 17.681 11.4628C18.1689 11.1395 18.6645 10.8273 19.1718 10.5358C19.4152 10.3982 19.6761 10.2958 19.9291 10.1779C20.4384 9.94864 20.9611 9.73901 21.5107 9.63099C22.1698 9.4957 22.8463 9.45059 23.5176 9.49131C24.2582 9.53662 24.9999 9.66319 25.6957 9.9284C26.6586 10.298 27.5274 10.912 28.1972 11.7008C28.4038 11.9381 28.5827 12.1974 28.7617 12.4557C29.0354 12.8282 29.3495 13.1775 29.7269 13.4461C30.0366 13.629 30.3794 13.7432 30.7136 13.8712C30.9985 13.9876 31.2932 14.1166 31.5063 14.3475C31.6548 14.5055 31.7138 14.7362 31.6689 14.948C31.6443 15.1323 31.5323 15.2902 31.3969 15.411C31.0938 15.6788 30.7023 15.8205 30.313 15.9039C30.0278 15.9639 29.7357 15.9735 29.4466 16.0026C30.1684 16.3125 30.8902 16.6224 31.612 16.9323L34.1806 19.7248C33.345 20.1469 32.5094 20.5689 31.6738 20.991C31.6953 22.6819 31.7169 23.93 31.7384 25.6209C28.9222 27.2525 22.7646 30.6748 22.0062 31.0724C18.7665 29.1773 15.5185 27.5156 12.2716 25.632ZM21.7009 22.1946C21.6998 22.1153 21.701 22.036 21.6972 21.9568C21.5225 22.1273 21.3607 22.3117 21.1932 22.4896C20.5684 23.1634 19.9523 23.8454 19.3209 24.5129C19.28 24.5377 19.2488 24.629 19.1946 24.592C18.207 24.0997 17.2253 23.5952 16.2406 23.097C15.1641 22.5531 14.0911 22.0022 13.0071 21.4736C12.9319 21.4396 12.8584 21.3985 12.7799 21.3735C12.7815 22.08 12.7993 22.7864 12.8087 23.4929C12.8217 24.252 12.8354 24.5685 12.8486 25.3276C15.7982 27.0412 18.7477 28.5334 21.6972 30.247C21.7059 25.0278 21.7061 23.7636 21.7009 22.1946ZM31.1503 25.3276C31.1425 23.935 31.1394 22.985 31.1155 21.5926C31.1111 21.4756 31.114 21.3574 31.1003 21.2413C30.7422 21.4128 30.3916 21.6003 30.0373 21.7797C28.3918 22.6259 26.7512 23.4818 25.1026 24.3221C25.0139 24.365 24.9274 24.4127 24.8368 24.4515C24.6459 24.2814 24.4673 24.0972 24.2835 23.9193C23.6301 23.2782 22.9842 22.6293 22.3268 21.9925C22.271 21.9138 22.2639 21.9752 22.2692 22.0412C22.2579 23.1326 22.2711 25.7465 22.2973 30.2369L31.1503 25.3276ZM19.4982 23.49C20.1197 22.8001 20.747 22.1153 21.3574 21.4155C21.3742 21.3797 21.4754 21.3206 21.3978 21.3014C20.622 20.9497 19.8373 20.6183 19.0561 20.2791C17.1537 19.4598 15.2503 18.6427 13.3454 17.8291C13.1317 17.7383 12.9181 17.6463 12.7044 17.5562C12.0518 18.2505 11.3992 18.9448 10.7467 19.639C13.5438 21.0551 16.3409 22.4711 19.138 23.8871C19.258 23.7547 19.3781 23.6223 19.4982 23.49ZM25.0055 23.7108C27.7469 22.3213 30.4884 20.9317 33.2298 19.5422C32.6099 18.8511 31.99 18.1601 31.3702 17.469C28.8615 18.5639 26.3486 19.649 23.8492 20.7652C23.4268 20.9581 22.9995 21.1412 22.5856 21.3521C22.5015 21.374 22.5909 21.4261 22.6172 21.4609C23.2132 22.071 23.8186 22.6721 24.4419 23.2539C24.6127 23.4073 24.7768 23.5714 24.968 23.6993C24.9793 23.7046 24.9922 23.7142 25.0055 23.7108ZM22.0279 20.8903C22.3797 20.7608 22.7227 20.608 23.0688 20.4641C24.8355 19.7133 26.595 18.9457 28.3536 18.176C29.1084 17.8427 29.8657 17.5148 30.6144 17.1678C30.6868 17.1485 30.6912 17.1153 30.6167 17.0953C29.9839 16.8053 29.3406 16.5392 28.7018 16.2629C28.375 16.107 28.003 16.092 27.6479 16.1133C27.0961 16.164 26.5474 16.2453 26.0003 16.3326C25.7022 16.381 25.4071 16.4461 25.1133 16.5155C25.0226 16.539 25.0233 16.6487 25.0227 16.7244C25.014 17.0554 24.9431 17.3809 24.8738 17.7034C24.7435 18.2687 24.5686 18.8313 24.2768 19.3349C24.0589 19.7057 23.7604 20.0474 23.3672 20.2327C23.211 20.3076 23.0197 20.3137 22.8687 20.2223C22.6366 20.086 22.4734 19.8627 22.3145 19.6503C22.0968 19.3425 21.8888 19.0253 21.6285 18.7513C21.4031 18.5075 21.1344 18.3031 20.8321 18.1659C20.7577 18.1291 20.6834 18.0924 20.609 18.0556C20.353 18.2016 20.0824 18.327 19.8551 18.5184C19.5349 18.7812 19.2462 19.0839 18.9988 19.417C18.9654 19.4709 18.9162 19.5217 18.9061 19.5859C19.058 19.6676 19.222 19.7298 19.379 19.8029C20.1547 20.1401 20.9308 20.4768 21.7167 20.7892C21.8156 20.8253 21.9125 20.87 22.0156 20.8928L22.0254 20.8908L22.0279 20.8903ZM23.1377 19.6813C23.2729 19.6484 23.371 19.5371 23.4643 19.4403C23.7117 19.1666 23.8882 18.8357 24.0136 18.4895C24.1936 18.0068 24.3354 17.5078 24.4147 16.9979C24.4314 16.8471 24.4599 16.6897 24.4183 16.5407C24.3946 16.477 24.3118 16.4809 24.2564 16.4668C23.8955 16.4199 23.5297 16.4272 23.167 16.4464C22.9417 16.4588 22.7175 16.4937 22.502 16.5625C22.125 16.678 21.7532 16.8259 21.4221 17.0434C21.2447 17.1704 21.0717 17.3083 20.9292 17.4748C20.8723 17.5205 20.9255 17.5584 20.9744 17.5741C21.2005 17.6926 21.4347 17.8004 21.6337 17.9636C22.0861 18.3173 22.4432 18.7766 22.7622 19.2515C22.8675 19.3962 22.9689 19.5466 23.0986 19.6707C23.1096 19.6808 23.123 19.6847 23.1377 19.6813ZM19.2562 18.3068C19.5481 18.0383 19.8679 17.8022 20.1551 17.5286C20.2547 17.4336 20.3081 17.3028 20.398 17.1996C20.7703 16.7314 21.2923 16.4075 21.8371 16.1801C22.5393 15.8949 23.31 15.7582 24.0657 15.8413C24.3613 15.8701 24.653 15.9779 24.9525 15.9373C25.4812 15.8105 26.0199 15.7324 26.5574 15.6543C26.9186 15.6031 27.2814 15.5637 27.6455 15.5396C27.7779 15.5253 27.9129 15.5198 28.0421 15.4858C28.0277 15.4403 27.9642 15.4133 27.9262 15.3813C27.7667 15.2781 27.6023 15.1816 27.4565 15.0586C27.2501 14.8876 27.0438 14.7108 26.8795 14.4972C26.8414 14.4541 26.8217 14.3934 26.851 14.3397C26.9013 14.2329 27.0141 14.1452 27.1348 14.1505C27.2769 14.2051 27.3921 14.3118 27.5072 14.4089C27.7615 14.6566 28.0492 14.8752 28.3787 15.0106C28.6914 15.1391 29.0182 15.2329 29.3499 15.2961C29.7774 15.3706 30.2354 15.3813 30.6414 15.2068C30.8213 15.1316 30.9755 15.0058 31.1002 14.8565C31.1827 14.8086 31.1175 14.7695 31.0662 14.7297C30.8621 14.5398 30.5915 14.4535 30.3354 14.361C29.8425 14.1782 29.348 13.9594 28.9593 13.5943C28.6037 13.268 28.3409 12.8588 28.0561 12.4726C27.5998 11.8632 27.0521 11.3127 26.397 10.9219C25.7756 10.5473 25.0793 10.3148 24.3728 10.1673C23.9106 10.0949 23.4413 10.0862 22.9743 10.0844C22.6125 10.0891 22.248 10.0924 21.8905 10.1542C21.0957 10.2996 20.3386 10.6067 19.6298 10.9915C19.1009 11.2793 18.587 11.595 18.0848 11.9277C16.6105 12.9229 15.3565 14.264 14.5163 15.8424C14.3168 16.221 14.138 16.6117 13.9929 17.0146C13.9661 17.145 13.9357 17.2759 13.9111 17.406C15.3703 18.0325 16.8296 18.659 18.2889 19.2855C18.6113 18.9593 18.9338 18.633 19.2562 18.3068ZM13.848 15.8828C13.8973 15.865 13.8682 15.7974 13.8952 15.7617C14.0235 15.4897 14.1839 15.2345 14.3374 14.9764C14.5362 14.6471 14.7492 14.3261 14.989 14.0254C15.3605 13.5524 15.7558 13.0966 16.1954 12.6861C16.2866 12.5931 16.3865 12.5059 16.464 12.401C16.4308 12.3587 16.3601 12.3784 16.3113 12.3745C15.9432 12.3993 15.5807 12.4751 15.2187 12.5435C14.583 12.6755 13.9539 12.8641 13.3725 13.1584C13.1273 13.2897 12.8735 13.4339 12.7072 13.6647C12.6214 13.7719 12.5929 13.9208 12.6411 14.0508C12.7236 14.2873 12.878 14.4887 13.017 14.6937C13.2364 15.0098 13.4499 15.3308 13.6407 15.6653C13.6958 15.7435 13.7448 15.8389 13.8341 15.8818H13.8342C13.8388 15.8822 13.8433 15.884 13.848 15.8828L13.848 15.8828Z" fill="black"/>
<path d="M26.1616 12.7101C25.9642 12.9094 25.9755 13.103 26.2068 13.3022C26.3985 13.4738 26.5452 13.4627 26.7482 13.2635C26.9456 13.0643 26.9343 12.8706 26.7031 12.6659C26.5113 12.4999 26.3647 12.5109 26.1616 12.7101Z" fill="black"/>
</g>
<g filter="url(#filter1_d_1_56)">
<path d="M43.3597 26.5007V14.1371H47.8874C48.7648 14.1371 49.4912 14.282 50.0667 14.5717C50.6423 14.8575 51.0729 15.2458 51.3586 15.7369C51.6444 16.2238 51.7873 16.7732 51.7873 17.3849C51.7873 17.9001 51.6927 18.3347 51.5035 18.6889C51.3144 19.0391 51.0608 19.3208 50.7429 19.5341C50.429 19.7434 50.0828 19.8963 49.7045 19.9929V20.1136C50.115 20.1337 50.5155 20.2666 50.9059 20.5121C51.3003 20.7535 51.6263 21.0976 51.8839 21.5444C52.1414 21.9911 52.2702 22.5344 52.2702 23.1743C52.2702 23.8062 52.1213 24.3737 51.8235 24.8768C51.5297 25.3758 51.0749 25.7722 50.4591 26.066C49.8434 26.3558 49.0566 26.5007 48.0987 26.5007H43.3597ZM45.2251 24.9009H47.9176C48.8111 24.9009 49.451 24.7279 49.8373 24.3817C50.2237 24.0356 50.4169 23.603 50.4169 23.0838C50.4169 22.6934 50.3183 22.3352 50.1211 22.0092C49.9239 21.6832 49.6421 21.4236 49.2759 21.2305C48.9137 21.0373 48.483 20.9407 47.984 20.9407H45.2251V24.9009ZM45.2251 19.4858H47.7244C48.143 19.4858 48.5193 19.4053 48.8533 19.2443C49.1914 19.0833 49.459 18.8579 49.6562 18.5682C49.8575 18.2744 49.9581 17.9283 49.9581 17.5298C49.9581 17.0187 49.779 16.5901 49.4208 16.244C49.0626 15.8978 48.5132 15.7248 47.7727 15.7248H45.2251V19.4858ZM60.2118 22.6552V17.228H62.0229V26.5007H60.248V24.8949H60.1514C59.9381 25.3899 59.596 25.8024 59.1251 26.1324C58.6583 26.4584 58.0767 26.6214 57.3805 26.6214C56.7848 26.6214 56.2576 26.4906 55.7988 26.229C55.344 25.9634 54.9858 25.571 54.7242 25.0518C54.4667 24.5327 54.3379 23.8907 54.3379 23.1261V17.228H56.1429V22.9087C56.1429 23.5406 56.318 24.0437 56.6681 24.418C57.0183 24.7922 57.473 24.9794 58.0325 24.9794C58.3705 24.9794 58.7066 24.8949 59.0406 24.7258C59.3787 24.5568 59.6584 24.3012 59.8798 23.9591C60.1051 23.6171 60.2158 23.1824 60.2118 22.6552ZM64.4482 26.5007V17.228H66.2533V26.5007H64.4482ZM65.3598 15.7972C65.0459 15.7972 64.7762 15.6926 64.5508 15.4833C64.3295 15.27 64.2188 15.0164 64.2188 14.7226C64.2188 14.4248 64.3295 14.1713 64.5508 13.962C64.7762 13.7487 65.0459 13.642 65.3598 13.642C65.6737 13.642 65.9413 13.7487 66.1627 13.962C66.3881 14.1713 66.5008 14.4248 66.5008 14.7226C66.5008 15.0164 66.3881 15.27 66.1627 15.4833C65.9413 15.6926 65.6737 15.7972 65.3598 15.7972ZM70.4867 14.1371V26.5007H68.6816V14.1371H70.4867ZM77.2435 17.228V18.6768H72.1785V17.228H77.2435ZM73.5368 15.0064H75.3419V23.778C75.3419 24.1282 75.3942 24.3918 75.4988 24.5689C75.6035 24.7419 75.7383 24.8607 75.9033 24.9251C76.0723 24.9854 76.2554 25.0156 76.4526 25.0156C76.5975 25.0156 76.7243 25.0056 76.833 24.9854C76.9416 24.9653 77.0262 24.9492 77.0865 24.9371L77.4125 26.4283C77.3079 26.4685 77.159 26.5087 76.9658 26.549C76.7726 26.5933 76.5311 26.6174 76.2414 26.6214C75.7664 26.6295 75.3237 26.545 74.9132 26.3679C74.5027 26.1908 74.1707 25.9171 73.9171 25.5469C73.6636 25.1766 73.5368 24.7118 73.5368 24.1523V15.0064ZM85.7495 26.5007L83.0208 17.228H84.8862L86.7034 24.0376H86.7939L88.6171 17.228H90.4825L92.2936 24.0074H92.3841L94.1891 17.228H96.0546L93.3319 26.5007H91.4906L89.6071 19.8057H89.4683L87.5847 26.5007H85.7495ZM97.7675 26.5007V17.228H99.5726V26.5007H97.7675ZM98.6791 15.7972C98.3652 15.7972 98.0955 15.6926 97.8702 15.4833C97.6488 15.27 97.5381 15.0164 97.5381 14.7226C97.5381 14.4248 97.6488 14.1713 97.8702 13.962C98.0955 13.7487 98.3652 13.642 98.6791 13.642C98.993 13.642 99.2607 13.7487 99.482 13.962C99.7074 14.1713 99.8201 14.4248 99.8201 14.7226C99.8201 15.0164 99.7074 15.27 99.482 15.4833C99.2607 15.6926 98.993 15.7972 98.6791 15.7972ZM106.329 17.228V18.6768H101.264V17.228H106.329ZM102.623 15.0064H104.428V23.778C104.428 24.1282 104.48 24.3918 104.585 24.5689C104.689 24.7419 104.824 24.8607 104.989 24.9251C105.158 24.9854 105.341 25.0156 105.539 25.0156C105.683 25.0156 105.81 25.0056 105.919 24.9854C106.028 24.9653 106.112 24.9492 106.172 24.9371L106.498 26.4283C106.394 26.4685 106.245 26.5087 106.052 26.549C105.859 26.5933 105.617 26.6174 105.327 26.6214C104.852 26.6295 104.41 26.545 103.999 26.3679C103.589 26.1908 103.257 25.9171 103.003 25.5469C102.75 25.1766 102.623 24.7118 102.623 24.1523V15.0064ZM110.33 20.995V26.5007H108.525V14.1371H110.306V18.7372H110.421C110.638 18.2382 110.97 17.8417 111.417 17.5479C111.864 17.2541 112.447 17.1072 113.168 17.1072C113.804 17.1072 114.359 17.238 114.834 17.4996C115.313 17.7612 115.683 18.1516 115.945 18.6708C116.21 19.1859 116.343 19.8299 116.343 20.6026V26.5007H114.538V20.8199C114.538 20.1398 114.363 19.6126 114.013 19.2383C113.663 18.86 113.176 18.6708 112.552 18.6708C112.125 18.6708 111.743 18.7614 111.405 18.9425C111.071 19.1236 110.807 19.3892 110.614 19.7393C110.425 20.0855 110.33 20.504 110.33 20.995Z" fill="#E8E8E8"/>
<path d="M122.937 26.5007V14.1371H128.044C128.97 14.1371 129.769 14.3182 130.441 14.6804C131.117 15.0386 131.638 15.5396 132.005 16.1836C132.371 16.8235 132.554 17.5681 132.554 18.4172C132.554 19.2705 132.367 20.017 131.992 20.6569C131.622 21.2928 131.093 21.7859 130.405 22.136C129.717 22.4861 128.9 22.6612 127.954 22.6612H124.803V20.3068H127.398C127.849 20.3068 128.225 20.2283 128.527 20.0714C128.833 19.9144 129.065 19.6951 129.222 19.4133C129.379 19.1276 129.457 18.7956 129.457 18.4172C129.457 18.0349 129.379 17.7049 129.222 17.4272C129.065 17.1455 128.833 16.9281 128.527 16.7752C128.221 16.6223 127.845 16.5458 127.398 16.5458H125.925V26.5007H122.937ZM136.309 26.6577C135.717 26.6577 135.192 26.5591 134.733 26.3618C134.278 26.1606 133.918 25.8588 133.653 25.4563C133.391 25.0498 133.26 24.5407 133.26 23.929C133.26 23.4138 133.351 22.9792 133.532 22.625C133.713 22.2708 133.963 21.9831 134.28 21.7617C134.598 21.5404 134.965 21.3733 135.379 21.2606C135.794 21.1439 136.236 21.0654 136.707 21.0252C137.235 20.9769 137.659 20.9266 137.981 20.8743C138.303 20.8179 138.537 20.7395 138.681 20.6388C138.83 20.5342 138.905 20.3873 138.905 20.1981V20.168C138.905 19.8581 138.798 19.6186 138.585 19.4496C138.372 19.2805 138.084 19.196 137.722 19.196C137.331 19.196 137.017 19.2805 136.78 19.4496C136.542 19.6186 136.391 19.852 136.327 20.1498L133.604 20.0533C133.685 19.4898 133.892 18.9867 134.226 18.544C134.564 18.0973 135.027 17.7471 135.615 17.4936C136.206 17.236 136.917 17.1072 137.746 17.1072C138.337 17.1072 138.883 17.1777 139.382 17.3185C139.881 17.4554 140.315 17.6566 140.686 17.9222C141.056 18.1838 141.342 18.5058 141.543 18.8881C141.748 19.2705 141.851 19.7071 141.851 20.1981V26.5007H139.074V25.2088H139.001C138.836 25.5227 138.625 25.7883 138.367 26.0057C138.114 26.223 137.814 26.386 137.468 26.4947C137.126 26.6033 136.74 26.6577 136.309 26.6577ZM137.22 24.7258C137.538 24.7258 137.824 24.6614 138.078 24.5327C138.335 24.4039 138.541 24.2268 138.693 24.0014C138.846 23.772 138.923 23.5064 138.923 23.2045V22.3231C138.838 22.3674 138.736 22.4077 138.615 22.4439C138.498 22.4801 138.37 22.5143 138.229 22.5465C138.088 22.5787 137.943 22.6069 137.794 22.631C137.645 22.6552 137.502 22.6773 137.365 22.6974C137.088 22.7417 136.85 22.8101 136.653 22.9027C136.46 22.9953 136.311 23.116 136.206 23.2649C136.106 23.4098 136.055 23.5828 136.055 23.7841C136.055 24.0899 136.164 24.3234 136.381 24.4844C136.603 24.6453 136.882 24.7258 137.22 24.7258ZM146.318 24.0678L146.33 20.5483H146.741L149.349 17.228H152.693L148.817 21.9851H148.039L146.318 24.0678ZM143.656 26.5007V14.1371H146.608V26.5007H143.656ZM149.415 26.5007L146.988 22.6491L148.932 20.5543L152.826 26.5007H149.415ZM156.412 24.0678L156.424 20.5483H156.834L159.442 17.228H162.787L158.911 21.9851H158.132L156.412 24.0678ZM153.75 26.5007V14.1371H156.702V26.5007H153.75ZM159.509 26.5007L157.082 22.6491L159.026 20.5543L162.92 26.5007H159.509ZM169.826 22.4982V17.228H172.772V26.5007H169.959V24.7741H169.862C169.657 25.3416 169.307 25.7924 168.812 26.1264C168.321 26.4564 167.727 26.6214 167.031 26.6214C166.399 26.6214 165.844 26.4765 165.365 26.1868C164.886 25.897 164.513 25.4925 164.248 24.9734C163.982 24.4502 163.847 23.8384 163.843 23.1381V17.228H166.795V22.5586C166.799 23.0617 166.932 23.4581 167.194 23.7479C167.455 24.0376 167.812 24.1825 168.262 24.1825C168.556 24.1825 168.82 24.1181 169.053 23.9893C169.291 23.8565 169.478 23.6654 169.615 23.4158C169.756 23.1623 169.826 22.8564 169.826 22.4982Z" fill="#00FFFF"/>
</g>
</g>
<rect x="1.07143" y="1.07143" width="179.858" height="37.8585" rx="6.92857" stroke="white" stroke-opacity="0.15" stroke-width="2.14286"/>
<defs>
<filter id="filter0_d_1_56" x="2.39972" y="-0.152595" width="39.202" height="40.8544" filterUnits="userSpaceOnUse" color-interpolation-filters="sRGB">
<feFlood flood-opacity="0" result="BackgroundImageFix"/>
<feColorMatrix in="SourceAlpha" type="matrix" values="0 0 0 0 0 0 0 0 0 0 0 0 0 0 0 0 0 0 127 0" result="hardAlpha"/>
<feOffset/>
<feGaussianBlur stdDeviation="2.80014"/>
<feComposite in2="hardAlpha" operator="out"/>
<feColorMatrix type="matrix" values="0 0 0 0 0 0 0 0 0 0 0 0 0 0 0 0 0 0 0.25 0"/>
<feBlend mode="normal" in2="BackgroundImageFix" result="effect1_dropShadow_1_56"/>
<feBlend mode="normal" in="SourceGraphic" in2="effect1_dropShadow_1_56" result="shape"/>
</filter>
<filter id="filter1_d_1_56" x="36.2871" y="3.78642" width="143.429" height="32.4286" filterUnits="userSpaceOnUse" color-interpolation-filters="sRGB">
<feFlood flood-opacity="0" result="BackgroundImageFix"/>
<feColorMatrix in="SourceAlpha" type="matrix" values="0 0 0 0 0 0 0 0 0 0 0 0 0 0 0 0 0 0 127 0" result="hardAlpha"/>
<feOffset/>
<feGaussianBlur stdDeviation="2.85714"/>
<feComposite in2="hardAlpha" operator="out"/>
<feColorMatrix type="matrix" values="0 0 0 0 0 0 0 0 0 0 0 0 0 0 0 0 0 0 0.25 0"/>
<feBlend mode="normal" in2="BackgroundImageFix" result="effect1_dropShadow_1_56"/>
<feBlend mode="normal" in="SourceGraphic" in2="effect1_dropShadow_1_56" result="shape"/>
</filter>
<linearGradient id="paint0_linear_1_56" x1="91.0007" y1="0" x2="91.0007" y2="40.0014" gradientUnits="userSpaceOnUse">
<stop stop-color="#108383"/>
<stop offset="1" stop-color="#002020"/>
</linearGradient>
<clipPath id="clip0_1_56">
<rect width="182.001" height="40.0014" rx="8" fill="white"/>
</clipPath>
</defs>
</svg>
