<svg width="40" height="40" viewBox="0 0 40 40" fill="none" xmlns="http://www.w3.org/2000/svg">
<g clip-path="url(#clip0_1_68)">
<rect width="40.0014" height="40.0014" rx="8" fill="url(#paint0_linear_1_68)"/>
<g filter="url(#filter0_d_1_68)">
<path d="M32.6 27.4119L20 34.5492L7.4 27.4119V13.1373L20 6L32.6 13.1373V27.4119Z" fill="#00FFFF" stroke="#00FFFF" stroke-width="0.961143"/>
<path d="M10.2716 25.632C10.2642 23.9617 10.2567 22.7341 10.2493 21.0639C9.44897 20.6569 8.64549 20.256 7.85059 19.8383C7.79062 19.808 7.90626 19.753 7.92527 19.7133C8.82792 18.7864 9.64479 17.8707 10.6 16.9992C10.6103 16.9898 11.1159 16.7177 11.2886 16.611C11.3219 16.5483 11.2885 16.4264 11.2748 16.3621C11.1706 16.0245 10.9864 15.719 10.7962 15.4244C10.5879 15.106 10.3354 14.8164 10.1578 14.4783C10.0406 14.2562 10.03 13.9944 10.0582 13.7494C10.1021 13.4322 10.3015 13.159 10.5472 12.9654C10.92 12.6698 11.3658 12.4881 11.8089 12.3284C12.5285 12.0725 13.2795 11.9186 14.0348 11.8173C14.429 11.7584 14.8272 11.7284 15.2202 11.6611C15.3879 11.6355 15.5455 11.5648 15.681 11.4628C16.1689 11.1395 16.6644 10.8273 17.1718 10.5358C17.4152 10.3982 17.6761 10.2958 17.9291 10.1779C18.4384 9.94864 18.9611 9.73901 19.5107 9.63099C20.1698 9.4957 20.8463 9.45059 21.5176 9.49131C22.2582 9.53662 22.9999 9.66319 23.6957 9.9284C24.6586 10.298 25.5274 10.912 26.1972 11.7008C26.4038 11.9381 26.5827 12.1974 26.7617 12.4557C27.0354 12.8282 27.3495 13.1775 27.7269 13.4461C28.0366 13.629 28.3794 13.7432 28.7136 13.8712C28.9985 13.9876 29.2932 14.1166 29.5063 14.3475C29.6548 14.5055 29.7138 14.7362 29.6689 14.948C29.6443 15.1323 29.5323 15.2902 29.3969 15.411C29.0938 15.6788 28.7023 15.8205 28.313 15.9039C28.0278 15.9639 27.7357 15.9735 27.4466 16.0026C28.1684 16.3125 28.8902 16.6224 29.612 16.9323L32.1806 19.7248C31.345 20.1469 30.5094 20.5689 29.6738 20.991C29.6953 22.6819 29.7169 23.93 29.7384 25.6209C26.9222 27.2525 20.7646 30.6748 20.0062 31.0724C16.7665 29.1773 13.5185 27.5156 10.2716 25.632ZM19.7009 22.1946C19.6998 22.1153 19.701 22.036 19.6972 21.9568C19.5224 22.1273 19.3607 22.3117 19.1932 22.4896C18.5684 23.1634 17.9523 23.8454 17.3209 24.5129C17.28 24.5377 17.2488 24.629 17.1946 24.592C16.207 24.0997 15.2253 23.5952 14.2406 23.097C13.1641 22.5531 12.0911 22.0022 11.0071 21.4736C10.9319 21.4396 10.8584 21.3985 10.7799 21.3735C10.7815 22.08 10.7993 22.7864 10.8087 23.4929C10.8217 24.252 10.8354 24.5685 10.8486 25.3276C13.7982 27.0412 16.7477 28.5334 19.6972 30.247C19.7059 25.0278 19.7061 23.7636 19.7009 22.1946ZM29.1503 25.3276C29.1425 23.935 29.1394 22.985 29.1155 21.5926C29.1111 21.4756 29.1139 21.3574 29.1003 21.2413C28.7422 21.4128 28.3916 21.6003 28.0373 21.7797C26.3918 22.6259 24.7512 23.4818 23.1026 24.3221C23.0139 24.365 22.9274 24.4127 22.8368 24.4515C22.6459 24.2814 22.4673 24.0972 22.2835 23.9193C21.6301 23.2782 20.9842 22.6293 20.3268 21.9925C20.271 21.9138 20.2639 21.9752 20.2692 22.0412C20.2579 23.1326 20.2711 25.7465 20.2973 30.2369L29.1503 25.3276ZM17.4982 23.49C18.1197 22.8001 18.747 22.1153 19.3574 21.4155C19.3742 21.3797 19.4754 21.3206 19.3978 21.3014C18.622 20.9497 17.8373 20.6183 17.0561 20.2791C15.1537 19.4598 13.2503 18.6427 11.3454 17.8291C11.1317 17.7383 10.9181 17.6463 10.7044 17.5562C10.0518 18.2505 9.39924 18.9448 8.74667 19.639C11.5438 21.0551 14.3409 22.4711 17.138 23.8871C17.258 23.7547 17.3781 23.6223 17.4982 23.49ZM23.0055 23.7108C25.7469 22.3213 28.4884 20.9317 31.2298 19.5422C30.6099 18.8511 29.99 18.1601 29.3702 17.469C26.8615 18.5639 24.3486 19.649 21.8492 20.7652C21.4268 20.9581 20.9995 21.1412 20.5856 21.3521C20.5015 21.374 20.5909 21.4261 20.6172 21.4609C21.2132 22.071 21.8186 22.6721 22.4419 23.2539C22.6127 23.4073 22.7768 23.5714 22.968 23.6993C22.9793 23.7046 22.9922 23.7142 23.0055 23.7108ZM20.0279 20.8903C20.3797 20.7608 20.7227 20.608 21.0688 20.4641C22.8355 19.7133 24.595 18.9457 26.3536 18.176C27.1084 17.8427 27.8657 17.5148 28.6144 17.1678C28.6868 17.1485 28.6912 17.1153 28.6167 17.0953C27.9839 16.8053 27.3406 16.5392 26.7018 16.2629C26.375 16.107 26.003 16.092 25.6479 16.1133C25.0961 16.164 24.5474 16.2453 24.0003 16.3326C23.7022 16.381 23.4071 16.4461 23.1133 16.5155C23.0226 16.539 23.0233 16.6487 23.0227 16.7244C23.014 17.0554 22.9431 17.3809 22.8738 17.7034C22.7435 18.2687 22.5686 18.8313 22.2768 19.3349C22.0589 19.7057 21.7604 20.0474 21.3672 20.2327C21.211 20.3076 21.0197 20.3137 20.8687 20.2223C20.6366 20.086 20.4734 19.8627 20.3145 19.6503C20.0968 19.3425 19.8888 19.0253 19.6285 18.7513C19.4031 18.5075 19.1344 18.3031 18.8321 18.1659C18.7577 18.1291 18.6834 18.0924 18.609 18.0556C18.353 18.2016 18.0824 18.327 17.8551 18.5184C17.5349 18.7812 17.2462 19.0839 16.9988 19.417C16.9654 19.4709 16.9162 19.5217 16.9061 19.5859C17.058 19.6676 17.222 19.7298 17.379 19.8029C18.1547 20.1401 18.9308 20.4768 19.7167 20.7892C19.8156 20.8253 19.9125 20.87 20.0156 20.8928L20.0254 20.8908L20.0279 20.8903ZM21.1377 19.6813C21.2729 19.6484 21.371 19.5371 21.4643 19.4403C21.7117 19.1666 21.8882 18.8357 22.0136 18.4895C22.1936 18.0068 22.3354 17.5078 22.4147 16.9979C22.4314 16.8471 22.4599 16.6897 22.4183 16.5407C22.3946 16.477 22.3118 16.4809 22.2564 16.4668C21.8955 16.4199 21.5297 16.4272 21.167 16.4464C20.9417 16.4588 20.7175 16.4937 20.502 16.5625C20.125 16.678 19.7532 16.8259 19.4221 17.0434C19.2447 17.1704 19.0717 17.3083 18.9292 17.4748C18.8723 17.5205 18.9255 17.5584 18.9744 17.5741C19.2005 17.6926 19.4347 17.8004 19.6337 17.9636C20.0861 18.3173 20.4432 18.7766 20.7622 19.2515C20.8675 19.3962 20.9689 19.5466 21.0986 19.6707C21.1096 19.6808 21.123 19.6847 21.1377 19.6813ZM17.2562 18.3068C17.5481 18.0383 17.8679 17.8022 18.1551 17.5286C18.2547 17.4336 18.308 17.3028 18.398 17.1996C18.7703 16.7314 19.2923 16.4075 19.8371 16.1801C20.5393 15.8949 21.3099 15.7582 22.0657 15.8413C22.3613 15.8701 22.653 15.9779 22.9525 15.9373C23.4812 15.8105 24.0199 15.7324 24.5574 15.6543C24.9186 15.6031 25.2814 15.5637 25.6455 15.5396C25.7779 15.5253 25.9129 15.5198 26.042 15.4858C26.0277 15.4403 25.9642 15.4133 25.9262 15.3813C25.7667 15.2781 25.6023 15.1816 25.4565 15.0586C25.2501 14.8876 25.0438 14.7108 24.8795 14.4972C24.8414 14.4541 24.8217 14.3934 24.851 14.3397C24.9013 14.2329 25.0141 14.1452 25.1348 14.1505C25.2769 14.2051 25.3921 14.3118 25.5072 14.4089C25.7615 14.6566 26.0492 14.8752 26.3787 15.0106C26.6914 15.1391 27.0182 15.2329 27.3499 15.2961C27.7774 15.3706 28.2354 15.3813 28.6414 15.2068C28.8213 15.1316 28.9755 15.0058 29.1002 14.8565C29.1827 14.8086 29.1175 14.7695 29.0662 14.7297C28.8621 14.5398 28.5915 14.4535 28.3354 14.361C27.8425 14.1782 27.348 13.9594 26.9593 13.5943C26.6037 13.268 26.3409 12.8588 26.0561 12.4726C25.5998 11.8632 25.0521 11.3127 24.397 10.9219C23.7756 10.5473 23.0793 10.3148 22.3728 10.1673C21.9106 10.0949 21.4413 10.0862 20.9743 10.0844C20.6125 10.0891 20.248 10.0924 19.8905 10.1542C19.0957 10.2996 18.3386 10.6067 17.6298 10.9915C17.1009 11.2793 16.587 11.595 16.0848 11.9277C14.6105 12.9229 13.3565 14.264 12.5163 15.8424C12.3168 16.221 12.138 16.6117 11.9929 17.0146C11.9661 17.145 11.9357 17.2759 11.9111 17.406C13.3703 18.0325 14.8296 18.659 16.2889 19.2855C16.6113 18.9593 16.9338 18.633 17.2562 18.3068ZM11.848 15.8828C11.8973 15.865 11.8682 15.7974 11.8952 15.7617C12.0235 15.4897 12.1839 15.2345 12.3374 14.9764C12.5362 14.6471 12.7492 14.3261 12.989 14.0254C13.3605 13.5524 13.7558 13.0966 14.1954 12.6861C14.2866 12.5931 14.3865 12.5059 14.464 12.401C14.4308 12.3587 14.3601 12.3784 14.3113 12.3745C13.9432 12.3993 13.5807 12.4751 13.2187 12.5435C12.583 12.6755 11.9539 12.8641 11.3725 13.1584C11.1273 13.2897 10.8735 13.4339 10.7072 13.6647C10.6214 13.7719 10.5929 13.9208 10.6411 14.0508C10.7236 14.2873 10.878 14.4887 11.017 14.6937C11.2364 15.0098 11.4499 15.3308 11.6407 15.6653C11.6958 15.7435 11.7448 15.8389 11.8341 15.8818H11.8342C11.8387 15.8822 11.8433 15.884 11.848 15.8828L11.848 15.8828Z" fill="black"/>
<path d="M24.1616 12.7101C23.9642 12.9094 23.9755 13.103 24.2068 13.3022C24.3985 13.4738 24.5452 13.4627 24.7482 13.2635C24.9456 13.0643 24.9343 12.8706 24.7031 12.6659C24.5113 12.4999 24.3647 12.5109 24.1616 12.7101Z" fill="black"/>
</g>
</g>
<rect x="1.05" y="1.05" width="37.9014" height="37.9014" rx="6.95" stroke="white" stroke-opacity="0.15" stroke-width="2.1"/>
<defs>
<filter id="filter0_d_1_68" x="0.399718" y="-0.152595" width="39.202" height="40.8544" filterUnits="userSpaceOnUse" color-interpolation-filters="sRGB">
<feFlood flood-opacity="0" result="BackgroundImageFix"/>
<feColorMatrix in="SourceAlpha" type="matrix" values="0 0 0 0 0 0 0 0 0 0 0 0 0 0 0 0 0 0 127 0" result="hardAlpha"/>
<feOffset/>
<feGaussianBlur stdDeviation="2.80014"/>
<feComposite in2="hardAlpha" operator="out"/>
<feColorMatrix type="matrix" values="0 0 0 0 0 0 0 0 0 0 0 0 0 0 0 0 0 0 0.25 0"/>
<feBlend mode="normal" in2="BackgroundImageFix" result="effect1_dropShadow_1_68"/>
<feBlend mode="normal" in="SourceGraphic" in2="effect1_dropShadow_1_68" result="shape"/>
</filter>
<linearGradient id="paint0_linear_1_68" x1="20.0007" y1="0" x2="20.0007" y2="40.0014" gradientUnits="userSpaceOnUse">
<stop stop-color="#108383"/>
<stop offset="1" stop-color="#002020"/>
</linearGradient>
<clipPath id="clip0_1_68">
<rect width="40.0014" height="40.0014" rx="8" fill="white"/>
</clipPath>
</defs>
</svg>
