<svg width="144" height="56" viewBox="0 0 144 56" fill="none" xmlns="http://www.w3.org/2000/svg">
<g clip-path="url(#clip0_1_50)">
<rect width="144" height="56" rx="8" fill="url(#paint0_linear_1_50)"/>
<g filter="url(#filter0_d_1_50)">
<path d="M50 38.5885L32 48.7846L14 38.5885V18.1962L32 8L50 18.1962V38.5885Z" fill="#00FFFF" stroke="#00FFFF" stroke-width="0.961143"/>
<path d="M18.1022 36.0456C18.0916 33.6596 18.0811 31.9059 18.0705 29.5198C16.9271 28.9384 15.7793 28.3657 14.6437 27.769C14.558 27.7258 14.7232 27.6472 14.7504 27.5904C16.0399 26.2663 17.2068 24.9581 18.5714 23.7131C18.5862 23.6996 19.3084 23.311 19.5551 23.1585C19.6026 23.069 19.5549 22.8948 19.5355 22.8029C19.3866 22.3207 19.1234 21.8843 18.8517 21.4634C18.5542 21.0086 18.1934 20.5948 17.9397 20.1118C17.7723 19.7945 17.7571 19.4206 17.7975 19.0706C17.8602 18.6174 18.145 18.2272 18.4961 17.9506C19.0286 17.5282 19.6655 17.2687 20.2985 17.0406C21.3264 16.675 22.3994 16.4552 23.4783 16.3104C24.0415 16.2263 24.6103 16.1835 25.1717 16.0873C25.4112 16.0507 25.6364 15.9497 25.83 15.8039C26.527 15.3421 27.2349 14.8961 27.9597 14.4797C28.3075 14.2831 28.6801 14.1369 29.0416 13.9684C29.7692 13.6409 30.5159 13.3414 31.301 13.1871C32.2426 12.9939 33.209 12.9294 34.168 12.9876C35.226 13.0523 36.2855 13.2331 37.2795 13.612C38.6551 14.1399 39.8963 15.0172 40.8532 16.144C41.1482 16.4829 41.4038 16.8533 41.6595 17.2224C42.0505 17.7546 42.4993 18.2536 43.0384 18.6373C43.4809 18.8985 43.9706 19.0617 44.4479 19.2445C44.855 19.4108 45.276 19.5951 45.5804 19.925C45.7926 20.1508 45.8768 20.4803 45.8127 20.7828C45.7776 21.0462 45.6175 21.2717 45.4242 21.4442C44.9912 21.8268 44.4319 22.0293 43.8758 22.1484C43.4683 22.2341 43.051 22.2478 42.6379 22.2895C43.6691 22.7321 44.7003 23.1748 45.7314 23.6175L49.4008 27.6069C48.2071 28.2098 47.0134 28.8127 45.8197 29.4157C45.8504 31.8312 45.8812 33.6143 45.912 36.0298C41.8889 38.3607 33.0923 43.2497 32.0089 43.8176C27.3807 41.1104 22.7408 38.7365 18.1022 36.0456ZM31.5727 31.1351C31.5712 31.0218 31.5729 30.9085 31.5674 30.7954C31.3178 31.039 31.0867 31.3024 30.8474 31.5566C29.9549 32.5192 29.0748 33.4935 28.1727 34.447C28.1143 34.4824 28.0697 34.6129 27.9923 34.56C26.5814 33.8567 25.179 33.136 23.7723 32.4242C22.2345 31.6473 20.7016 30.8603 19.153 30.1052C19.0455 30.0565 18.9406 29.9978 18.8284 29.9621C18.8307 30.9714 18.8561 31.9806 18.8695 32.9898C18.8881 34.0743 18.9077 34.5264 18.9266 35.6109C23.1402 38.0588 27.3538 40.1906 31.5674 42.6385C31.5798 35.1825 31.5801 33.3765 31.5727 31.1351ZM45.0719 35.6109C45.0607 33.6214 45.0562 32.2643 45.0221 30.2751C45.0158 30.1079 45.0199 29.9391 45.0004 29.7732C44.4889 30.0183 43.9881 30.2862 43.4818 30.5424C41.1311 31.7513 38.7874 32.974 36.4323 34.1744C36.3056 34.2357 36.182 34.3039 36.0526 34.3592C35.7798 34.1163 35.5248 33.8531 35.2621 33.599C34.3286 32.6832 33.406 31.7561 32.4668 30.8464C32.3871 30.7341 32.3769 30.8218 32.3846 30.916C32.3685 32.4751 32.3873 36.2092 32.4247 42.6241L45.0719 35.6109ZM28.426 32.9856C29.3139 32.0001 30.21 31.0219 31.082 30.0221C31.1061 29.971 31.2505 29.8865 31.1397 29.8592C30.0314 29.3568 28.9105 28.8832 27.7944 28.3988C25.0767 27.2283 22.3576 26.0609 19.6363 24.8987C19.3311 24.7689 19.0259 24.6376 18.7205 24.5088C17.7883 25.5007 16.8561 26.4925 15.9238 27.4843C19.9197 29.5072 23.9155 31.5301 27.9114 33.553C28.0829 33.3639 28.2545 33.1748 28.426 32.9856ZM36.2936 33.3011C40.2099 31.3161 44.1262 29.331 48.0425 27.346C47.157 26.3588 46.2715 25.3715 45.3859 24.3843C41.8022 25.9484 38.2123 27.4986 34.6417 29.0932C34.0382 29.3686 33.4279 29.6303 32.8366 29.9315C32.7165 29.9629 32.8442 30.0372 32.8817 30.087C33.7331 30.9585 34.5981 31.8172 35.4885 32.6484C35.7325 32.8676 35.9668 33.102 36.2399 33.2847C36.2562 33.2923 36.2745 33.306 36.2936 33.3011ZM32.0399 29.2718C32.5425 29.0868 33.0324 28.8686 33.5269 28.6629C36.0507 27.5904 38.5643 26.4939 41.0765 25.3942C42.1548 24.9182 43.2367 24.4497 44.3063 23.954C44.4097 23.9265 44.416 23.879 44.3096 23.8504C43.4056 23.4361 42.4865 23.056 41.574 22.6613C41.1071 22.4385 40.5757 22.4171 40.0684 22.4476C39.2801 22.52 38.4963 22.6361 37.7147 22.7608C37.2889 22.8299 36.8673 22.923 36.4475 23.0221C36.3179 23.0557 36.319 23.2125 36.3181 23.3206C36.3058 23.7935 36.2045 24.2585 36.1054 24.7192C35.9193 25.5267 35.6695 26.3304 35.2526 27.0499C34.9413 27.5796 34.5149 28.0678 33.9531 28.3324C33.73 28.4394 33.4567 28.4481 33.241 28.3175C32.9095 28.1228 32.6762 27.8038 32.4493 27.5004C32.1382 27.0608 31.8412 26.6076 31.4693 26.2162C31.1472 25.8678 30.7634 25.5759 30.3316 25.3799C30.2253 25.3273 30.1191 25.2748 30.0129 25.2223C29.6471 25.4309 29.2606 25.6099 28.9359 25.8834C28.4785 26.2588 28.0659 26.6912 27.7125 27.1671C27.6649 27.2442 27.5946 27.3167 27.5802 27.4084C27.7971 27.5251 28.0315 27.614 28.2558 27.7184C29.3638 28.2001 30.4726 28.6811 31.5952 29.1274C31.7366 29.1789 31.875 29.2428 32.0222 29.2755L32.0363 29.2725L32.0399 29.2718ZM33.6253 27.5446C33.8184 27.4977 33.9586 27.3388 34.0919 27.2005C34.4453 26.8094 34.6974 26.3367 34.8766 25.8421C35.1337 25.1526 35.3363 24.4397 35.4495 23.7113C35.4734 23.4959 35.5141 23.271 35.4547 23.0582C35.4208 22.9672 35.3025 22.9728 35.2234 22.9525C34.7078 22.8856 34.1853 22.896 33.6672 22.9235C33.3452 22.9412 33.025 22.991 32.7171 23.0893C32.1786 23.2542 31.6475 23.4656 31.1744 23.7763C30.921 23.9577 30.6738 24.1548 30.4703 24.3925C30.3889 24.4579 30.4651 24.512 30.5349 24.5345C30.8578 24.7037 31.1924 24.8577 31.4767 25.0908C32.1231 25.5962 32.6331 26.2522 33.0888 26.9307C33.2392 27.1374 33.3841 27.3523 33.5694 27.5295C33.5852 27.544 33.6043 27.5496 33.6253 27.5446ZM28.0803 25.5811C28.4972 25.1975 28.9542 24.8603 29.3645 24.4694C29.5068 24.3337 29.5829 24.1469 29.7114 23.9994C30.2433 23.3305 30.989 22.8679 31.7673 22.543C32.7705 22.1356 33.8714 21.9402 34.951 22.0589C35.3733 22.1001 35.79 22.2541 36.2179 22.1962C36.9731 22.015 37.7427 21.9034 38.5106 21.7919C39.0266 21.7187 39.5449 21.6624 40.0649 21.628C40.2541 21.6076 40.447 21.5997 40.6315 21.5511C40.611 21.4861 40.5203 21.4475 40.4659 21.4018C40.2381 21.2544 40.0033 21.1165 39.795 20.9408C39.5001 20.6965 39.2054 20.444 38.9707 20.1388C38.9162 20.0773 38.8881 19.9906 38.9301 19.9139C39.0018 19.7613 39.1631 19.636 39.3354 19.6436C39.5384 19.7216 39.703 19.874 39.8674 20.0127C40.2307 20.3665 40.6418 20.6788 41.1124 20.8723C41.5591 21.0558 42.026 21.1899 42.4999 21.2801C43.1105 21.3866 43.7649 21.4018 44.3449 21.1526C44.6018 21.0451 44.8221 20.8654 45.0003 20.6521C45.1182 20.5837 45.025 20.5279 44.9517 20.471C44.6602 20.1997 44.2736 20.0764 43.9077 19.9443C43.2036 19.6831 42.4972 19.3706 41.9418 18.8489C41.4338 18.3828 41.0584 17.7983 40.6516 17.2465C39.9997 16.376 39.2173 15.5896 38.2814 15.0313C37.3938 14.4961 36.3989 14.164 35.3897 13.9532C34.7294 13.8499 34.0589 13.8375 33.3919 13.8348C32.875 13.8416 32.3543 13.8462 31.8435 13.9345C30.7082 14.1422 29.6266 14.581 28.6141 15.1307C27.8584 15.5418 27.1243 15.9928 26.4069 16.4681C24.3007 17.8898 22.5093 19.8057 21.3091 22.0606C21.0239 22.6014 20.7685 23.1595 20.5613 23.7351C20.523 23.9214 20.4796 24.1084 20.4444 24.2942C22.529 25.1892 24.6137 26.0843 26.6984 26.9793C27.159 26.5133 27.6197 26.0472 28.0803 25.5811ZM20.3543 22.1183C20.4247 22.0928 20.3832 21.9963 20.4217 21.9453C20.6051 21.5568 20.8342 21.1921 21.0534 20.8234C21.3375 20.353 21.6417 19.8944 21.9843 19.4648C22.515 18.7892 23.0798 18.1379 23.7077 17.5516C23.8381 17.4188 23.9806 17.2942 24.0914 17.1443C24.044 17.0839 23.943 17.112 23.8733 17.1065C23.3474 17.1418 22.8296 17.2501 22.3125 17.3478C21.4043 17.5365 20.5056 17.8058 19.675 18.2262C19.3247 18.4138 18.9622 18.6198 18.7246 18.9496C18.602 19.1027 18.5613 19.3155 18.6301 19.5011C18.748 19.8389 18.9686 20.1267 19.1671 20.4195C19.4806 20.8712 19.7855 21.3296 20.0581 21.8076C20.1369 21.9192 20.2069 22.0556 20.3344 22.1168H20.3345C20.3411 22.1175 20.3476 22.12 20.3543 22.1183L20.3543 22.1183Z" fill="black"/>
<path d="M37.9452 17.5859C37.6632 17.8705 37.6793 18.1472 38.0096 18.4318C38.2836 18.6768 38.4931 18.661 38.7831 18.3764C39.0651 18.0918 39.049 17.8152 38.7187 17.5227C38.4447 17.2855 38.2353 17.3013 37.9452 17.5859Z" fill="black"/>
</g>
<g filter="url(#filter1_d_1_50)">
<path d="M61.2784 24.5V12.8636H65.5398C66.3655 12.8636 67.0492 13 67.5909 13.2727C68.1326 13.5417 68.5379 13.9072 68.8068 14.3693C69.0757 14.8276 69.2102 15.3447 69.2102 15.9204C69.2102 16.4053 69.1212 16.8144 68.9432 17.1477C68.7651 17.4773 68.5265 17.7424 68.2273 17.9432C67.9318 18.1401 67.606 18.2841 67.25 18.375V18.4886C67.6363 18.5076 68.0132 18.6326 68.3807 18.8636C68.7519 19.0909 69.0587 19.4148 69.3011 19.8352C69.5435 20.2557 69.6648 20.767 69.6648 21.3693C69.6648 21.964 69.5246 22.4981 69.2443 22.9716C68.9678 23.4413 68.5398 23.8144 67.9602 24.0909C67.3807 24.3636 66.6401 24.5 65.7386 24.5H61.2784ZM63.0341 22.9943H65.5682C66.4091 22.9943 67.0113 22.8314 67.375 22.5057C67.7386 22.1799 67.9204 21.7727 67.9204 21.2841C67.9204 20.9167 67.8276 20.5795 67.642 20.2727C67.4564 19.9659 67.1913 19.7216 66.8466 19.5398C66.5057 19.3579 66.1004 19.267 65.6307 19.267H63.0341V22.9943ZM63.0341 17.8977H65.3863C65.7803 17.8977 66.1345 17.822 66.4488 17.6704C66.767 17.5189 67.0189 17.3068 67.2045 17.0341C67.3939 16.7576 67.4886 16.4318 67.4886 16.0568C67.4886 15.5758 67.3201 15.1723 66.9829 14.8466C66.6458 14.5208 66.1288 14.3579 65.4318 14.3579H63.0341V17.8977ZM77.1392 20.8807V15.7727H78.8437V24.5H77.1733V22.9886H77.0824C76.8816 23.4545 76.5596 23.8428 76.1165 24.1534C75.6771 24.4602 75.1297 24.6136 74.4744 24.6136C73.9138 24.6136 73.4176 24.4905 72.9858 24.2443C72.5577 23.9943 72.2206 23.625 71.9744 23.1364C71.732 22.6477 71.6108 22.0436 71.6108 21.3239V15.7727H73.3096V21.1193C73.3096 21.714 73.4744 22.1875 73.804 22.5398C74.1335 22.892 74.5615 23.0682 75.088 23.0682C75.4062 23.0682 75.7225 22.9886 76.0369 22.8295C76.3551 22.6704 76.6184 22.4299 76.8267 22.1079C77.0388 21.786 77.143 21.3769 77.1392 20.8807ZM81.1264 24.5V15.7727H82.8253V24.5H81.1264ZM81.9844 14.4261C81.6889 14.4261 81.4351 14.3276 81.223 14.1307C81.0147 13.9299 80.9105 13.6913 80.9105 13.4148C80.9105 13.1345 81.0147 12.8958 81.223 12.6989C81.4351 12.4981 81.6889 12.3977 81.9844 12.3977C82.2798 12.3977 82.5317 12.4981 82.74 12.6989C82.9522 12.8958 83.0582 13.1345 83.0582 13.4148C83.0582 13.6913 82.9522 13.9299 82.74 14.1307C82.5317 14.3276 82.2798 14.4261 81.9844 14.4261ZM86.8096 12.8636V24.5H85.1108V12.8636H86.8096ZM93.169 15.7727V17.1364H88.402V15.7727H93.169ZM89.6804 13.6818H91.3792V21.9375C91.3792 22.267 91.4285 22.5151 91.527 22.6818C91.6254 22.8447 91.7523 22.9564 91.9076 23.017C92.0667 23.0739 92.2391 23.1023 92.4247 23.1023C92.5611 23.1023 92.6804 23.0928 92.7826 23.0739C92.8849 23.0549 92.9645 23.0398 93.0213 23.0284L93.3281 24.4318C93.2296 24.4697 93.0895 24.5076 92.9076 24.5454C92.7258 24.5871 92.4986 24.6098 92.2258 24.6136C91.7789 24.6212 91.3622 24.5417 90.9758 24.375C90.5895 24.2083 90.277 23.9508 90.0383 23.6023C89.7997 23.2538 89.6804 22.8163 89.6804 22.2898V13.6818ZM101.175 24.5L98.6065 15.7727H100.362L102.072 22.1818H102.158L103.874 15.7727H105.629L107.334 22.1534H107.419L109.118 15.7727H110.874L108.311 24.5H106.578L104.805 18.1989H104.675L102.902 24.5H101.175ZM112.486 24.5V15.7727H114.185V24.5H112.486ZM113.344 14.4261C113.048 14.4261 112.794 14.3276 112.582 14.1307C112.374 13.9299 112.27 13.6913 112.27 13.4148C112.27 13.1345 112.374 12.8958 112.582 12.6989C112.794 12.4981 113.048 12.3977 113.344 12.3977C113.639 12.3977 113.891 12.4981 114.099 12.6989C114.312 12.8958 114.418 13.1345 114.418 13.4148C114.418 13.6913 114.312 13.9299 114.099 14.1307C113.891 14.3276 113.639 14.4261 113.344 14.4261ZM120.544 15.7727V17.1364H115.777V15.7727H120.544ZM117.055 13.6818H118.754V21.9375C118.754 22.267 118.803 22.5151 118.902 22.6818C119 22.8447 119.127 22.9564 119.283 23.017C119.442 23.0739 119.614 23.1023 119.8 23.1023C119.936 23.1023 120.055 23.0928 120.158 23.0739C120.26 23.0549 120.339 23.0398 120.396 23.0284L120.703 24.4318C120.605 24.4697 120.464 24.5076 120.283 24.5454C120.101 24.5871 119.874 24.6098 119.601 24.6136C119.154 24.6212 118.737 24.5417 118.351 24.375C117.964 24.2083 117.652 23.9508 117.413 23.6023C117.175 23.2538 117.055 22.8163 117.055 22.2898V13.6818ZM124.31 19.3182V24.5H122.611V12.8636H124.287V17.1932H124.395C124.599 16.7235 124.912 16.3504 125.332 16.0739C125.753 15.7973 126.302 15.6591 126.98 15.6591C127.579 15.6591 128.101 15.7822 128.548 16.0284C128.999 16.2746 129.348 16.642 129.594 17.1307C129.844 17.6155 129.969 18.2216 129.969 18.9489V24.5H128.27V19.1534C128.27 18.5133 128.105 18.017 127.776 17.6648C127.446 17.3087 126.988 17.1307 126.401 17.1307C125.999 17.1307 125.639 17.2159 125.321 17.3864C125.007 17.5568 124.758 17.8068 124.577 18.1364C124.399 18.4621 124.31 18.8561 124.31 19.3182Z" fill="#E8E8E8"/>
<path d="M60.9357 43.5V31.1364H66.043C66.9686 31.1364 67.7675 31.3175 68.4396 31.6797C69.1157 32.0379 69.6369 32.5389 70.0032 33.1829C70.3694 33.8228 70.5525 34.5673 70.5525 35.4165C70.5525 36.2698 70.3654 37.0163 69.9911 37.6562C69.6208 38.2921 69.0916 38.7851 68.4034 39.1353C67.7152 39.4854 66.8982 39.6605 65.9524 39.6605H62.8011V37.3061H65.397C65.8478 37.3061 66.2241 37.2276 66.5259 37.0707C66.8318 36.9137 67.0632 36.6944 67.2202 36.4126C67.3771 36.1269 67.4556 35.7949 67.4556 35.4165C67.4556 35.0342 67.3771 34.7042 67.2202 34.4265C67.0632 34.1448 66.8318 33.9274 66.5259 33.7745C66.22 33.6216 65.8437 33.5451 65.397 33.5451H63.924V43.5H60.9357ZM74.3075 43.6569C73.7159 43.6569 73.1907 43.5583 72.7319 43.3611C72.2771 43.1599 71.9169 42.8581 71.6513 42.4556C71.3897 42.0491 71.2589 41.54 71.2589 40.9283C71.2589 40.4131 71.3494 39.9784 71.5305 39.6243C71.7116 39.2701 71.9612 38.9824 72.2791 38.761C72.597 38.5396 72.9633 38.3726 73.3778 38.2599C73.7924 38.1432 74.2351 38.0647 74.7059 38.0245C75.2332 37.9762 75.6578 37.9259 75.9797 37.8736C76.3017 37.8172 76.5351 37.7387 76.68 37.6381C76.8289 37.5335 76.9034 37.3866 76.9034 37.1974V37.1672C76.9034 36.8574 76.7967 36.6179 76.5834 36.4489C76.3701 36.2798 76.0824 36.1953 75.7202 36.1953C75.3298 36.1953 75.0158 36.2798 74.7784 36.4489C74.5409 36.6179 74.39 36.8513 74.3256 37.1491L71.603 37.0525C71.6835 36.4891 71.8907 35.986 72.2248 35.5433C72.5628 35.0966 73.0257 34.7464 73.6133 34.4929C74.2049 34.2353 74.9152 34.1065 75.7443 34.1065C76.3359 34.1065 76.8813 34.177 77.3803 34.3178C77.8794 34.4547 78.314 34.6559 78.6843 34.9215C79.0545 35.1831 79.3403 35.5051 79.5415 35.8874C79.7468 36.2698 79.8494 36.7064 79.8494 37.1974V43.5H77.0724V42.2081H77C76.835 42.522 76.6237 42.7876 76.3661 43.005C76.1126 43.2223 75.8127 43.3853 75.4666 43.494C75.1245 43.6026 74.7381 43.6569 74.3075 43.6569ZM75.2191 41.7251C75.537 41.7251 75.8228 41.6607 76.0763 41.5319C76.3339 41.4032 76.5392 41.2261 76.6921 41.0007C76.845 40.7713 76.9215 40.5057 76.9215 40.2038V39.3224C76.837 39.3667 76.7344 39.4069 76.6136 39.4432C76.4969 39.4794 76.3681 39.5136 76.2273 39.5458C76.0864 39.578 75.9415 39.6062 75.7926 39.6303C75.6437 39.6545 75.5008 39.6766 75.364 39.6967C75.0863 39.741 74.8488 39.8094 74.6516 39.902C74.4584 39.9945 74.3095 40.1153 74.2049 40.2642C74.1043 40.4091 74.054 40.5821 74.054 40.7834C74.054 41.0892 74.1626 41.3227 74.38 41.4837C74.6013 41.6446 74.881 41.7251 75.2191 41.7251ZM84.3167 41.0671L84.3288 37.5476H84.7393L87.3473 34.2273H90.6917L86.816 38.9844H86.0373L84.3167 41.0671ZM81.6545 43.5V31.1364H84.6065V43.5H81.6545ZM87.4137 43.5L84.9868 39.6484L86.9307 37.5536L90.8245 43.5H87.4137ZM94.4105 41.0671L94.4226 37.5476H94.8331L97.441 34.2273H100.785L96.9098 38.9844H96.131L94.4105 41.0671ZM91.7482 43.5V31.1364H94.7003V43.5H91.7482ZM97.5074 43.5L95.0806 39.6484L97.0245 37.5536L100.918 43.5H97.5074ZM107.825 39.4975V34.2273H110.771V43.5H107.957V41.7734H107.861C107.656 42.3409 107.305 42.7917 106.81 43.1257C106.319 43.4557 105.726 43.6207 105.029 43.6207C104.398 43.6207 103.842 43.4758 103.363 43.1861C102.884 42.8963 102.512 42.4918 102.246 41.9726C101.981 41.4494 101.846 40.8377 101.842 40.1374V34.2273H104.794V39.5579C104.798 40.061 104.931 40.4574 105.192 40.7471C105.454 41.0369 105.81 41.1818 106.261 41.1818C106.555 41.1818 106.818 41.1174 107.052 40.9886C107.289 40.8558 107.476 40.6646 107.613 40.4151C107.754 40.1616 107.825 39.8557 107.825 39.4975Z" fill="#00FFFF"/>
</g>
</g>
<rect x="1.05" y="1.05" width="141.9" height="53.9" rx="6.95" stroke="white" stroke-opacity="0.15" stroke-width="2.1"/>
<defs>
<filter id="filter0_d_1_50" x="6.28571" y="1.7334" width="51.4286" height="53.3178" filterUnits="userSpaceOnUse" color-interpolation-filters="sRGB">
<feFlood flood-opacity="0" result="BackgroundImageFix"/>
<feColorMatrix in="SourceAlpha" type="matrix" values="0 0 0 0 0 0 0 0 0 0 0 0 0 0 0 0 0 0 127 0" result="hardAlpha"/>
<feOffset/>
<feGaussianBlur stdDeviation="2.85714"/>
<feComposite in2="hardAlpha" operator="out"/>
<feColorMatrix type="matrix" values="0 0 0 0 0 0 0 0 0 0 0 0 0 0 0 0 0 0 0.25 0"/>
<feBlend mode="normal" in2="BackgroundImageFix" result="effect1_dropShadow_1_50"/>
<feBlend mode="normal" in="SourceGraphic" in2="effect1_dropShadow_1_50" result="shape"/>
</filter>
<filter id="filter1_d_1_50" x="54.4" y="3.9" width="83.2" height="48.2" filterUnits="userSpaceOnUse" color-interpolation-filters="sRGB">
<feFlood flood-opacity="0" result="BackgroundImageFix"/>
<feColorMatrix in="SourceAlpha" type="matrix" values="0 0 0 0 0 0 0 0 0 0 0 0 0 0 0 0 0 0 127 0" result="hardAlpha"/>
<feOffset/>
<feGaussianBlur stdDeviation="2.8"/>
<feComposite in2="hardAlpha" operator="out"/>
<feColorMatrix type="matrix" values="0 0 0 0 0 0 0 0 0 0 0 0 0 0 0 0 0 0 0.25 0"/>
<feBlend mode="normal" in2="BackgroundImageFix" result="effect1_dropShadow_1_50"/>
<feBlend mode="normal" in="SourceGraphic" in2="effect1_dropShadow_1_50" result="shape"/>
</filter>
<linearGradient id="paint0_linear_1_50" x1="72" y1="0" x2="72" y2="56" gradientUnits="userSpaceOnUse">
<stop stop-color="#108383"/>
<stop offset="1" stop-color="#002020"/>
</linearGradient>
<clipPath id="clip0_1_50">
<rect width="144" height="56" rx="8" fill="white"/>
</clipPath>
</defs>
</svg>
