<svg width="56" height="56" viewBox="0 0 56 56" fill="none" xmlns="http://www.w3.org/2000/svg">
<g clip-path="url(#clip0_1_62)">
<rect width="56" height="56" rx="8.4" fill="url(#paint0_linear_1_62)"/>
<g filter="url(#filter0_d_1_62)">
<g filter="url(#filter1_d_1_62)">
<path d="M46 38.5885L28 48.7846L10 38.5885V18.1962L28 8L46 18.1962V38.5885Z" fill="#00FFFF" stroke="#00FFFF" stroke-width="0.961143"/>
<path d="M14.1022 36.0457C14.0916 33.6596 14.0811 31.9059 14.0705 29.5198C12.9271 28.9384 11.7793 28.3657 10.6437 27.769C10.558 27.7258 10.7232 27.6472 10.7504 27.5904C12.0399 26.2663 13.2068 24.9581 14.5714 23.7131C14.5862 23.6996 15.3084 23.311 15.5551 23.1585C15.6026 23.069 15.5549 22.8948 15.5355 22.8029C15.3866 22.3207 15.1234 21.8843 14.8517 21.4634C14.5542 21.0086 14.1934 20.5948 13.9397 20.1118C13.7723 19.7945 13.7571 19.4206 13.7975 19.0706C13.8602 18.6174 14.145 18.2272 14.4961 17.9506C15.0286 17.5282 15.6655 17.2687 16.2985 17.0406C17.3264 16.675 18.3994 16.4552 19.4783 16.3104C20.0415 16.2263 20.6103 16.1835 21.1717 16.0873C21.4112 16.0507 21.6364 15.9497 21.83 15.8039C22.527 15.3421 23.2349 14.8961 23.9597 14.4797C24.3075 14.2831 24.6801 14.1369 25.0416 13.9684C25.7692 13.6409 26.5159 13.3414 27.301 13.1871C28.2426 12.9939 29.209 12.9294 30.168 12.9876C31.226 13.0523 32.2855 13.2331 33.2795 13.612C34.6551 14.1399 35.8963 15.0172 36.8532 16.144C37.1482 16.4829 37.4038 16.8534 37.6595 17.2224C38.0505 17.7546 38.4993 18.2536 39.0384 18.6373C39.4809 18.8985 39.9706 19.0617 40.4479 19.2445C40.855 19.4108 41.276 19.5951 41.5804 19.925C41.7926 20.1508 41.8768 20.4803 41.8127 20.7828C41.7776 21.0462 41.6175 21.2717 41.4242 21.4442C40.9912 21.8268 40.4319 22.0293 39.8758 22.1484C39.4683 22.2341 39.051 22.2478 38.6379 22.2895C39.6691 22.7321 40.7003 23.1748 41.7314 23.6175L45.4008 27.6069C44.2071 28.2098 43.0134 28.8128 41.8197 29.4157C41.8504 31.8312 41.8812 33.6143 41.912 36.0298C37.8889 38.3607 29.0923 43.2497 28.0089 43.8176C23.3807 41.1104 18.7408 38.7365 14.1022 36.0457ZM27.5727 31.1351C27.5712 31.0218 27.5729 30.9085 27.5674 30.7954C27.3178 31.039 27.0867 31.3024 26.8474 31.5566C25.9549 32.5192 25.0748 33.4935 24.1727 34.447C24.1143 34.4825 24.0697 34.6129 23.9923 34.56C22.5814 33.8567 21.179 33.136 19.7723 32.4242C18.2345 31.6473 16.7016 30.8603 15.153 30.1052C15.0455 30.0565 14.9406 29.9978 14.8284 29.9621C14.8307 30.9714 14.8561 31.9806 14.8695 32.9898C14.8881 34.0743 14.9077 34.5264 14.9266 35.6109C19.1402 38.0588 23.3538 40.1906 27.5674 42.6385C27.5798 35.1825 27.5801 33.3765 27.5727 31.1351ZM41.0719 35.6109C41.0607 33.6214 41.0562 32.2643 41.0221 30.2751C41.0158 30.1079 41.0199 29.9391 41.0004 29.7732C40.4889 30.0183 39.9881 30.2862 39.4818 30.5424C37.1311 31.7513 34.7874 32.974 32.4323 34.1744C32.3056 34.2357 32.182 34.3039 32.0526 34.3592C31.7798 34.1163 31.5248 33.8531 31.2621 33.599C30.3286 32.6832 29.406 31.7561 28.4668 30.8464C28.3871 30.7341 28.3769 30.8218 28.3846 30.916C28.3685 32.4751 28.3873 36.2092 28.4247 42.6241L41.0719 35.6109ZM24.426 32.9856C25.3139 32.0001 26.21 31.0219 27.082 30.0221C27.1061 29.971 27.2505 29.8865 27.1397 29.8592C26.0314 29.3568 24.9105 28.8832 23.7944 28.3988C21.0767 27.2283 18.3576 26.0609 15.6363 24.8987C15.3311 24.7689 15.0259 24.6376 14.7205 24.5089C13.7883 25.5007 12.8561 26.4925 11.9238 27.4843C15.9197 29.5072 19.9155 31.5301 23.9114 33.553C24.0829 33.3639 24.2545 33.1748 24.426 32.9856ZM32.2936 33.3011C36.2099 31.3161 40.1262 29.331 44.0425 27.346C43.157 26.3588 42.2715 25.3715 41.3859 24.3843C37.8022 25.9484 34.2123 27.4986 30.6417 29.0932C30.0382 29.3686 29.4279 29.6303 28.8366 29.9315C28.7165 29.9629 28.8442 30.0372 28.8817 30.087C29.7331 30.9585 30.5981 31.8172 31.4885 32.6485C31.7325 32.8676 31.9668 33.102 32.2399 33.2847C32.2562 33.2923 32.2745 33.306 32.2936 33.3011ZM28.0399 29.2718C28.5425 29.0868 29.0324 28.8686 29.5269 28.6629C32.0507 27.5904 34.5643 26.4939 37.0765 25.3942C38.1548 24.9182 39.2367 24.4497 40.3063 23.954C40.4097 23.9265 40.416 23.879 40.3096 23.8504C39.4056 23.4361 38.4865 23.0561 37.574 22.6613C37.1071 22.4385 36.5757 22.4171 36.0684 22.4476C35.2801 22.52 34.4963 22.6361 33.7147 22.7608C33.2889 22.83 32.8673 22.923 32.4475 23.0221C32.3179 23.0557 32.319 23.2125 32.3181 23.3206C32.3058 23.7935 32.2045 24.2585 32.1054 24.7192C31.9193 25.5268 31.6695 26.3304 31.2526 27.0499C30.9413 27.5796 30.5149 28.0678 29.9531 28.3324C29.73 28.4394 29.4567 28.4481 29.241 28.3175C28.9095 28.1228 28.6762 27.8038 28.4493 27.5004C28.1382 27.0608 27.8412 26.6076 27.4693 26.2162C27.1472 25.8678 26.7634 25.5759 26.3316 25.3799C26.2253 25.3273 26.1191 25.2748 26.0129 25.2223C25.6471 25.4309 25.2606 25.6099 24.9359 25.8834C24.4785 26.2588 24.0659 26.6912 23.7125 27.1671C23.6649 27.2442 23.5946 27.3167 23.5802 27.4084C23.7971 27.5251 24.0315 27.614 24.2558 27.7184C25.3638 28.2001 26.4726 28.6811 27.5952 29.1274C27.7366 29.179 27.875 29.2428 28.0222 29.2755L28.0363 29.2725L28.0399 29.2718ZM29.6253 27.5446C29.8184 27.4977 29.9586 27.3388 30.0919 27.2005C30.4453 26.8094 30.6974 26.3367 30.8766 25.8421C31.1337 25.1526 31.3363 24.4397 31.4495 23.7113C31.4734 23.4959 31.5141 23.271 31.4547 23.0582C31.4208 22.9672 31.3025 22.9728 31.2234 22.9525C30.7078 22.8856 30.1853 22.896 29.6672 22.9235C29.3452 22.9412 29.025 22.991 28.7171 23.0893C28.1786 23.2543 27.6475 23.4656 27.1744 23.7763C26.921 23.9577 26.6738 24.1548 26.4703 24.3925C26.3889 24.4579 26.4651 24.512 26.5349 24.5345C26.8578 24.7037 27.1924 24.8577 27.4767 25.0908C28.1231 25.5962 28.6331 26.2522 29.0888 26.9307C29.2392 27.1374 29.3841 27.3523 29.5694 27.5295C29.5852 27.544 29.6043 27.5496 29.6253 27.5446ZM24.0803 25.5811C24.4972 25.1975 24.9542 24.8603 25.3645 24.4694C25.5068 24.3337 25.5829 24.1469 25.7114 23.9994C26.2433 23.3305 26.989 22.8679 27.7673 22.543C28.7705 22.1356 29.8714 21.9402 30.951 22.0589C31.3733 22.1001 31.79 22.2541 32.2179 22.1962C32.9731 22.015 33.7427 21.9034 34.5106 21.7919C35.0266 21.7188 35.5449 21.6624 36.0649 21.628C36.2541 21.6076 36.447 21.5998 36.6315 21.5511C36.611 21.4861 36.5203 21.4475 36.4659 21.4018C36.2381 21.2544 36.0033 21.1165 35.795 20.9408C35.5001 20.6965 35.2054 20.444 34.9707 20.1388C34.9162 20.0773 34.8881 19.9906 34.9301 19.9139C35.0018 19.7613 35.1631 19.636 35.3354 19.6436C35.5384 19.7216 35.703 19.874 35.8674 20.0127C36.2307 20.3665 36.6418 20.6788 37.1124 20.8723C37.5591 21.0558 38.026 21.1899 38.4999 21.2801C39.1105 21.3866 39.7649 21.4018 40.3449 21.1526C40.6018 21.0451 40.8221 20.8654 41.0003 20.6522C41.1182 20.5837 41.025 20.5279 40.9517 20.471C40.6602 20.1997 40.2736 20.0765 39.9077 19.9443C39.2036 19.6831 38.4972 19.3706 37.9418 18.849C37.4338 18.3828 37.0584 17.7983 36.6516 17.2465C35.9997 16.376 35.2173 15.5896 34.2814 15.0313C33.3938 14.4961 32.3989 14.164 31.3897 13.9532C30.7294 13.8499 30.0589 13.8375 29.3919 13.8348C28.875 13.8416 28.3543 13.8462 27.8435 13.9345C26.7082 14.1422 25.6266 14.581 24.6141 15.1307C23.8584 15.5418 23.1243 15.9928 22.4069 16.4681C20.3007 17.8898 18.5093 19.8057 17.3091 22.0606C17.0239 22.6014 16.7685 23.1595 16.5613 23.7351C16.523 23.9214 16.4796 24.1084 16.4444 24.2942C18.529 25.1893 20.6137 26.0843 22.6984 26.9793C23.159 26.5133 23.6197 26.0472 24.0803 25.5811ZM16.3543 22.1183C16.4247 22.0928 16.3832 21.9963 16.4217 21.9453C16.6051 21.5568 16.8342 21.1921 17.0534 20.8234C17.3375 20.353 17.6417 19.8944 17.9843 19.4648C18.515 18.7892 19.0798 18.1379 19.7077 17.5516C19.8381 17.4188 19.9806 17.2942 20.0914 17.1443C20.044 17.0839 19.943 17.112 19.8733 17.1065C19.3474 17.1418 18.8296 17.2501 18.3125 17.3478C17.4043 17.5365 16.5056 17.8058 15.675 18.2262C15.3247 18.4138 14.9622 18.6198 14.7246 18.9496C14.602 19.1027 14.5613 19.3155 14.6301 19.5011C14.748 19.8389 14.9686 20.1267 15.1671 20.4195C15.4806 20.8712 15.7855 21.3296 16.0581 21.8076C16.1369 21.9192 16.2069 22.0556 16.3344 22.1168H16.3345C16.3411 22.1175 16.3476 22.12 16.3543 22.1183L16.3543 22.1183Z" fill="black"/>
<path d="M33.9452 17.5859C33.6632 17.8705 33.6793 18.1472 34.0096 18.4318C34.2836 18.6768 34.4931 18.661 34.7831 18.3764C35.0651 18.0918 35.049 17.8152 34.7187 17.5227C34.4447 17.2855 34.2353 17.3013 33.9452 17.5859Z" fill="black"/>
</g>
</g>
</g>
<rect x="1.05" y="1.05" width="53.9" height="53.9" rx="7.35" stroke="white" stroke-opacity="0.15" stroke-width="2.1"/>
<defs>
<filter id="filter0_d_1_62" x="2.28571" y="1.7334" width="51.4286" height="53.3178" filterUnits="userSpaceOnUse" color-interpolation-filters="sRGB">
<feFlood flood-opacity="0" result="BackgroundImageFix"/>
<feColorMatrix in="SourceAlpha" type="matrix" values="0 0 0 0 0 0 0 0 0 0 0 0 0 0 0 0 0 0 127 0" result="hardAlpha"/>
<feOffset/>
<feGaussianBlur stdDeviation="2.85714"/>
<feComposite in2="hardAlpha" operator="out"/>
<feColorMatrix type="matrix" values="0 0 0 0 0 0 0 0 0 0 0 0 0 0 0 0 0 0 0.25 0"/>
<feBlend mode="normal" in2="BackgroundImageFix" result="effect1_dropShadow_1_62"/>
<feBlend mode="normal" in="SourceGraphic" in2="effect1_dropShadow_1_62" result="shape"/>
</filter>
<filter id="filter1_d_1_62" x="2.28571" y="1.7334" width="51.4286" height="53.3178" filterUnits="userSpaceOnUse" color-interpolation-filters="sRGB">
<feFlood flood-opacity="0" result="BackgroundImageFix"/>
<feColorMatrix in="SourceAlpha" type="matrix" values="0 0 0 0 0 0 0 0 0 0 0 0 0 0 0 0 0 0 127 0" result="hardAlpha"/>
<feOffset/>
<feGaussianBlur stdDeviation="2.85714"/>
<feComposite in2="hardAlpha" operator="out"/>
<feColorMatrix type="matrix" values="0 0 0 0 0 0 0 0 0 0 0 0 0 0 0 0 0 0 0.25 0"/>
<feBlend mode="normal" in2="BackgroundImageFix" result="effect1_dropShadow_1_62"/>
<feBlend mode="normal" in="SourceGraphic" in2="effect1_dropShadow_1_62" result="shape"/>
</filter>
<linearGradient id="paint0_linear_1_62" x1="28" y1="0" x2="28" y2="56" gradientUnits="userSpaceOnUse">
<stop stop-color="#108383"/>
<stop offset="1" stop-color="#002020"/>
</linearGradient>
<clipPath id="clip0_1_62">
<rect width="56" height="56" rx="8.4" fill="white"/>
</clipPath>
</defs>
</svg>
