<?xml version="1.0" encoding="UTF-8" standalone="no"?>
<svg
   viewBox="0 0 500 500"
   version="1.1"
   id="svg2"
   width="500"
   height="500"
   sodipodi:docname="pakku_cropped.svg"
   inkscape:version="1.3.2 (091e20e, 2023-11-25, custom)"
   xmlns:inkscape="http://www.inkscape.org/namespaces/inkscape"
   xmlns:sodipodi="http://sodipodi.sourceforge.net/DTD/sodipodi-0.dtd"
   xmlns="http://www.w3.org/2000/svg"
   xmlns:svg="http://www.w3.org/2000/svg">
  <sodipodi:namedview
     id="namedview1"
     pagecolor="#ffffff"
     bordercolor="#000000"
     borderopacity="0.25"
     inkscape:showpageshadow="2"
     inkscape:pageopacity="0.0"
     inkscape:pagecheckerboard="0"
     inkscape:deskcolor="#d1d1d1"
     inkscape:zoom="1"
     inkscape:cx="221.5"
     inkscape:cy="203"
     inkscape:window-width="2560"
     inkscape:window-height="1361"
     inkscape:window-x="-9"
     inkscape:window-y="-9"
     inkscape:window-maximized="1"
     inkscape:current-layer="svg2" />
  <defs
     id="defs2" />
  <g
     id="g1"
     transform="matrix(0.99399987,0,0,0.99399987,35.049521,1.505533)">
    <g
       id="layer1"
       transform="matrix(0.96694503,0,0,0.96694503,-49.541015,-15.915417)">
      <path
         style="fill:#00ffff;fill-opacity:1;stroke:#00ffff"
         id="path4"
         d="M 247.44428,363.74103 24.041629,492.72261 -199.36103,363.74103 l 1e-5,-257.96317 L 24.041631,-23.20372 247.44428,105.77786 Z"
         transform="translate(250.83337,40.240555)" />
    </g>
    <g
       transform="matrix(0.09669451,0,0,-0.09669451,-116.39321,556.80502)"
       fill="#000000"
       stroke="none"
       id="g2">
      <path
         d="m 1670,2204.8379 c -1.349,301.8405 -2.6979,523.681 -4.0469,825.5215 -145.624,73.5427 -291.8183,145.9924 -436.4511,221.4726 -10.9102,5.4728 10.1304,15.4169 13.5889,22.5938 164.2379,167.4983 312.8674,332.9895 486.6694,490.4852 1.8768,1.7007 93.8665,50.8595 125.2856,70.1502 6.0542,11.3277 -0.021,33.3568 -2.4996,44.9841 -18.9682,60.9973 -52.4904,116.2058 -87.0932,169.4508 -37.887,57.5371 -83.8407,109.8724 -116.1505,170.9772 -21.3237,40.1393 -23.2576,87.4372 -18.1171,131.7103 7.9864,57.3261 44.2551,106.698 88.9755,141.6868 67.8237,53.4281 148.9418,86.2525 229.5647,115.1164 130.9258,46.2412 267.5776,74.0538 404.996,92.3663 71.7316,10.6346 144.1799,16.0571 215.6786,28.2261 30.5141,4.6286 59.1904,17.4065 83.8443,35.84 88.7776,58.4171 178.9439,114.8395 271.2552,167.5175 44.2961,24.8674 91.7577,43.3638 137.794,64.6732 92.6726,41.4329 187.775,79.3164 287.7671,98.837 119.936,24.4487 243.013,32.6018 365.1671,25.2431 134.7475,-8.1889 269.6945,-31.0615 396.2965,-78.9882 175.1992,-66.7869 333.2867,-177.7594 455.1569,-320.2959 37.579,-42.8799 70.1291,-89.7375 102.6985,-136.4284 C 4720.1846,4518.6567 4777.3464,4455.5403 4846,4407 c 56.365,-33.0458 118.7291,-53.6887 179.5287,-76.8133 51.848,-21.0387 105.4614,-44.3545 144.239,-86.08 27.0223,-28.5637 37.7544,-70.2423 29.5798,-108.5138 -4.4688,-33.3184 -24.8558,-61.8411 -49.48,-83.6718 -55.1466,-48.4001 -126.3797,-74.008 -197.2132,-89.0734 C 4900.7576,3952.0059 4847.6125,3950.2716 4795,3945 c 131.3333,-56 262.6667,-112 394,-168 l 467.3574,-504.6543 c -152.039,-76.2721 -304.0781,-152.5443 -456.1172,-228.8164 3.92,-305.5638 7.8399,-531.1276 11.7598,-836.6914 C 4699.592,1911.9869 3579.2111,1293.5261 3441.2247,1221.6794 2851.7505,1564.1511 2260.7868,1864.4463 1670,2204.8379 Z m 1715.6667,621.1899 c -0.1904,14.3233 0.032,28.6618 -0.6667,42.9722 -31.7971,-30.825 -61.2266,-64.1357 -91.7111,-96.2954 -113.6694,-121.7683 -225.7696,-245.0132 -340.6567,-365.6373 -7.438,-4.484 -13.1173,-20.9867 -22.9813,-14.2955 -179.703,88.9711 -358.3109,180.1428 -537.4848,270.1749 -195.8603,98.2815 -391.0991,197.8432 -588.3303,293.3593 -13.6947,6.1596 -27.0575,13.5808 -41.3456,18.0983 0.2886,-127.675 3.5274,-255.3349 5.2335,-383.0001 2.3705,-137.1897 4.8598,-194.3774 7.2763,-331.5663 536.6667,-309.6667 1073.3333,-579.3333 1610,-889 1.5761,943.1851 1.612,1171.6458 0.6667,1455.1899 z M 5105,2259.8379 c -1.4287,251.6636 -1.9925,423.346 -6.336,674.9804 -0.8024,21.1414 -0.2829,42.504 -2.7675,63.4825 -65.1551,-31.0069 -128.94,-64.8865 -193.4159,-97.2996 -299.4027,-152.9261 -597.9118,-307.6048 -897.8673,-459.4461 -16.1347,-7.7568 -31.878,-16.3814 -48.3594,-23.3852 -34.7387,30.7328 -67.226,64.0261 -100.6815,96.1752 -118.89,115.8473 -236.3975,233.1185 -356.0244,348.2049 -10.1482,14.2054 -11.4451,3.111 -10.4707,-8.8068 -2.0521,-197.2349 0.3394,-669.5976 5.1144,-1481.0811 z m -2120.1133,332.0918 c 113.0866,124.666 227.2199,248.4116 338.2902,374.885 3.0588,6.4645 21.4566,17.1553 7.3461,20.6125 -141.156,63.5551 -283.9269,123.4587 -426.0783,184.7435 -346.1448,148.0691 -692.4631,295.7355 -1039.0532,442.7593 -38.883,16.4138 -77.7463,33.0263 -116.6415,49.3161 -118.735,-125.4662 -237.4701,-250.9323 -356.2051,-376.3984 508.9343,-255.8965 1017.8685,-511.793 1526.8028,-767.6895 21.8463,23.9238 43.6927,47.8477 65.539,71.7715 z m 1002.0567,-39.9082 c 498.8046,251.1081 997.6093,502.2161 1496.414,753.3242 C 5370.5716,3430.2305 5257.7858,3555.1152 5145,3680 4688.5486,3482.1417 4231.3193,3286.0455 3776.5521,3084.3295 c -76.8582,-34.8474 -154.5918,-67.9464 -229.9109,-106.056 -15.2928,-3.9613 0.9697,-13.3706 5.7524,-19.6641 108.4423,-110.2464 218.6023,-218.8737 332.0077,-324.0249 31.0771,-27.7215 60.9255,-57.3771 95.7146,-80.4816 2.0679,-0.9711 4.4033,-2.7016 6.8275,-2.0814 z m -541.7715,509.7129 c 64.0118,23.4007 126.4146,50.9996 189.3949,77.0181 321.4397,135.6783 641.5915,274.3859 961.5602,413.4906 137.3428,60.2217 275.1352,119.4799 411.3636,182.1941 13.1716,3.4788 13.9684,9.4839 0.4219,13.0991 -115.1429,52.4071 -232.1993,100.4893 -348.4254,150.426 -59.4671,28.1816 -127.1446,30.8898 -191.7608,27.032 -100.4004,-9.1546 -200.2311,-23.8416 -299.7792,-39.6246 -54.229,-8.7423 -107.933,-20.5144 -161.3905,-33.0533 -16.5083,-4.2506 -16.3722,-24.0793 -16.4882,-37.7562 -1.5702,-59.8176 -14.4684,-118.6426 -27.0876,-176.9205 -23.7013,-102.1582 -55.522,-203.8198 -108.6147,-294.835 -39.6487,-67.0079 -93.9669,-128.7627 -165.5145,-162.2442 -28.4178,-13.5354 -63.227,-14.6261 -90.6928,1.8912 -42.229,24.6228 -71.935,64.9811 -100.8382,103.3657 -39.6196,55.6094 -77.4544,112.9363 -124.8242,162.4508 -41.0168,44.0647 -89.901,80.9978 -144.9043,105.7918 -13.5307,6.6467 -27.0614,13.2933 -40.5921,19.94 -46.5822,-26.3903 -95.8122,-49.0414 -137.164,-83.6319 -58.2618,-47.4954 -110.8057,-102.1946 -155.8196,-162.3934 -6.0646,-9.7483 -15.0237,-18.9176 -16.8582,-30.5196 27.6298,-14.7686 57.4804,-26.007 86.048,-39.2187 141.1295,-60.9309 282.3452,-121.7766 425.3342,-178.2409 18.0075,-6.5183 35.6309,-14.5979 54.3834,-18.726 l 1.7902,0.3702 z m 201.9258,218.4824 c 24.5937,5.9445 42.4482,26.0434 59.4307,43.5397 45.0078,49.4673 77.1159,109.27 99.9381,171.8283 32.7582,87.2288 58.5537,177.4091 72.9749,269.548 3.0453,27.2539 8.2274,55.698 0.6621,82.6231 -4.3178,11.5137 -19.3819,10.8046 -29.456,13.365 -65.6707,8.4641 -132.2208,7.1568 -198.21,3.676 -41.009,-2.2394 -81.7986,-8.5446 -121.0104,-20.9772 -68.5904,-20.8664 -136.2318,-47.6051 -196.4905,-86.9068 -32.2689,-22.9431 -63.7496,-47.8736 -89.674,-77.9536 -10.3634,-8.2642 -0.6686,-15.1144 8.2251,-17.9563 41.1313,-21.4082 83.7475,-40.8914 119.96,-70.3778 82.32,-63.926 147.2795,-146.9176 205.321,-232.7402 19.1617,-26.1568 37.6158,-53.3385 61.2118,-75.7522 2.0128,-1.8396 4.4421,-2.5416 7.1172,-1.916 z m -706.2344,248.3887 c 53.098,48.5215 111.2985,91.1862 163.5566,140.6289 18.1201,17.1628 27.8224,40.8007 44.1909,59.463 67.7435,84.6079 162.7174,143.1276 261.841,184.2306 127.7755,51.5391 267.9875,76.2486 405.4994,61.2322 53.7857,-5.2024 106.8596,-24.6924 161.3554,-17.3614 96.1881,22.9253 194.2084,37.0381 292.0073,51.1448 65.7274,9.2508 131.7391,16.3729 197.9734,20.7284 24.0956,2.5838 48.6676,3.5756 72.16,9.7323 -2.6098,8.2144 -14.1631,13.1013 -21.0869,18.8793 -29.0168,18.6474 -58.9178,36.093 -85.452,58.3212 -37.5576,30.901 -75.0935,62.8481 -104.9881,101.4552 -6.9364,7.7789 -10.5203,18.7511 -5.1781,28.4478 9.1415,19.3045 29.6766,35.1541 51.6289,34.1914 25.8483,-9.8682 46.8116,-29.1391 67.7519,-46.6894 46.271,-44.759 98.6338,-84.2669 158.5804,-108.7356 56.8848,-23.2173 116.3595,-40.1828 176.7082,-51.5939 77.7808,-13.4722 161.1242,-15.3917 234.9924,16.1355 32.7247,13.5994 60.7773,36.3293 83.4753,63.3035 15.0137,8.6643 3.1426,15.7162 -6.187,22.9206 -37.1339,34.3178 -86.3632,49.9058 -132.9694,66.6233 -89.6796,33.0397 -179.6541,72.5772 -250.3831,138.5614 -64.7059,58.9645 -112.5149,132.9026 -164.3359,202.7109 -83.0317,110.1153 -182.6711,209.6022 -301.8775,280.2239 -113.0537,67.7058 -239.7594,109.7084 -368.2979,136.3751 -84.0986,13.0701 -169.4975,14.6456 -254.4532,14.9799 -65.8408,-0.8574 -132.1541,-1.4448 -197.2118,-12.6114 -144.6064,-26.2774 -282.3603,-81.7792 -411.3215,-151.3138 -96.2464,-52.0118 -189.7436,-109.0632 -281.117,-169.1891 -268.2536,-179.8451 -496.4149,-422.2102 -649.2883,-707.4449 -36.313,-68.4165 -68.8415,-139.0164 -95.2389,-211.8347 -4.8808,-23.5627 -10.4103,-47.2144 -14.8892,-70.7221 265.5137,-113.2233 531.0273,-226.4466 796.541,-339.6699 58.6712,58.959 117.3425,117.918 176.0137,176.877 z m -984.0313,438.0429 c 8.9724,3.2289 3.6821,15.4409 8.5828,21.891 23.3588,49.1463 52.5373,95.2791 80.4632,141.9162 36.1769,59.5124 74.9313,117.5166 118.56,171.863 67.6012,85.4688 139.5273,167.8493 219.4997,242.0201 16.6065,16.8043 34.7682,32.5676 48.8787,51.5187 -6.0477,7.652 -18.9027,4.0918 -27.7792,4.7889 -66.9865,-4.4646 -132.933,-18.1705 -198.8022,-30.5244 -115.6687,-23.8709 -230.1302,-57.9374 -335.9135,-111.1249 -44.6274,-23.7284 -90.7984,-49.7884 -121.0551,-91.501 -15.6194,-19.3696 -20.7928,-46.2842 -12.036,-69.7686 15.0141,-42.7358 43.1086,-79.1322 68.399,-116.1813 39.9272,-57.1341 78.7657,-115.1294 113.4841,-175.5918 10.0278,-14.1216 18.9481,-31.3735 35.1873,-39.1184 h 0.014 c 0.8351,-0.079 1.6617,-0.4023 2.5175,-0.1836 z"
         id="path1"
         style="fill:#000000;fill-opacity:1;stroke-width:24;stroke-dasharray:none;paint-order:markers fill stroke"
         transform="matrix(0.97446095,0,0,1,87.889465,0)" />
      <path
         d="m 4178,4540 c -35,-36 -33,-71 8,-107 34,-31 60,-29 96,7 35,36 33,71 -8,108 -34,30 -60,28 -96,-8 z"
         id="path2" />
    </g>
  </g>
</svg>
